<svg xmlns="http://www.w3.org/2000/svg" viewBox="0 0 128 128">
  <path fill="#fff" d="M64 112 18.5 70.2C6.8 59.4 6.2 41 17.2 29.5c10.2-10.7 27.4-10.4 37.6.2L64 39.4l9.2-9.7c10.2-10.6 27.4-10.9 37.6-.2 11 11.5 10.4 29.9-1.3 40.7L64 112z"/>
  <path fill="#b30f21" d="M64 104.2 23.7 67.3C14.9 59.2 14.4 45 22.6 36.4c7.7-8.1 21-8 28.8.2L64 49.9l12.6-13.3c7.8-8.2 21.1-8.3 28.8-.2 8.2 8.6 7.7 22.8-1.1 30.9L64 104.2z"/>
  <linearGradient id="heartGrad" x1="23" x2="105" y1="35" y2="105" gradientUnits="userSpaceOnUse">
    <stop offset="0" stop-color="#ff7055"/>
    <stop offset="0.55" stop-color="#ff1e16"/>
    <stop offset="1" stop-color="#c90e22"/>
  </linearGradient>
  <path fill="url(#heartGrad)" d="M64 96.7 29 64.7c-6.4-5.9-6.8-16.3-.8-22.6 5.7-6 15.5-5.9 21.3.2L64 57.6l14.5-15.3c5.8-6.1 15.6-6.2 21.3-.2 6 6.3 5.6 16.7-.8 22.6L64 96.7z"/>
  <path fill="#ffb19f" opacity=".78" d="M28.7 56.1c-2.3-12 8.6-23 20.8-19.9 2.8.7 2.7 4.6.1 5.5-8.8 3-13.1 8.3-14.6 17-.5 2.7-5.6 1.3-6.3-2.6z"/>
</svg>
