<svg xmlns="http://www.w3.org/2000/svg" viewBox="0 0 128 128">
  <linearGradient id="handGrad" x1="49" x2="79" y1="10" y2="118" gradientUnits="userSpaceOnUse">
    <stop offset="0" stop-color="#ffd147"/>
    <stop offset="1" stop-color="#ffb000"/>
  </linearGradient>
  <path fill="#df9700" d="M48.4 116.5c-16.3-1.5-29.1-14.9-30-31.3L15.6 38c-.3-5.7 4.2-10.5 9.9-10.5 5.2 0 9.5 4 9.9 9.1l1.6 24.9h4.6V20.7c0-5.9 4.8-10.7 10.7-10.7 5.8 0 10.5 4.6 10.7 10.4l.6 41.1h4V27.2c0-5.8 4.8-10.6 10.6-10.6s10.6 4.8 10.6 10.6v42.6l12.2-9.8c4.7-3.7 11.6-2.6 14.9 2.4 2.9 4.4 2 10.3-2 13.7L94.7 92.4c-3.9 14.7-17.7 25.4-33.3 25.4-4.3 0-8.7-.5-13-1.3z"/>
  <path fill="url(#handGrad)" d="M50 110.4c-13.5-1.3-24.1-12.4-24.8-26L22.4 38c-.1-2 1.3-3.7 3.3-3.7 1.7 0 3.2 1.3 3.3 3.1l1.9 30.8h17.5V20.7c0-2.2 1.8-4 4-4 2.1 0 3.9 1.7 4 3.8l.7 48h17.3V27.2c0-2.1 1.7-3.9 3.9-3.9 2.1 0 3.9 1.7 3.9 3.9v56.3l22.9-18.4c1.7-1.4 4.3-1 5.5.9 1 1.6.7 3.8-.8 5L88.3 89.2c-2.4 12.4-13.7 21.8-26.8 21.8-3.8 0-7.6-.2-11.5-.6z"/>
  <path fill="#ffd96b" opacity=".7" d="M52.6 20.3c1.4 0 2.6 1.1 2.7 2.5l.4 35.8c0 2.2-3.4 2.2-3.4 0V22.9c0-1.4.9-2.6 2.3-2.6zm25.6 6.7c1.5 0 2.7 1.2 2.7 2.7v36c0 2.1-3.3 2.1-3.3 0v-36c0-1.5 1.1-2.7 2.6-2.7z"/>
  <path fill="#e39b00" opacity=".42" d="M83 89.2c2.9-9.3 8.9-16.7 18.3-22.5l2.2 3.6c-8.5 5.3-13.8 11.8-16.4 20.2-.8 2.5-4.9 1.2-4.1-1.3z"/>
</svg>
