<svg xmlns="http://www.w3.org/2000/svg" viewBox="0 0 128 128">
  <defs>
    <radialGradient id="handPalm" cx="49%" cy="56%" r="62%">
      <stop offset="0" stop-color="#ffe46f"/>
      <stop offset=".55" stop-color="#ffd45b"/>
      <stop offset="1" stop-color="#f3af2f"/>
    </radialGradient>
    <linearGradient id="fingerHighlight" x1="45" x2="75" y1="5" y2="92" gradientUnits="userSpaceOnUse">
      <stop offset="0" stop-color="#ffe88b"/>
      <stop offset="1" stop-color="#f9c34c"/>
    </linearGradient>
    <filter id="softTexture" x="-8%" y="-8%" width="116%" height="116%">
      <feTurbulence type="fractalNoise" baseFrequency=".9" numOctaves="2" seed="7" result="noise"/>
      <feColorMatrix in="noise" type="saturate" values="0"/>
      <feComponentTransfer>
        <feFuncA type="table" tableValues="0 .08"/>
      </feComponentTransfer>
      <feBlend in="SourceGraphic" mode="multiply"/>
    </filter>
  </defs>
  <path
    fill="#c68921"
    d="M46.3 121.2c-18.8-2.2-33.3-17.8-34-36.7L9.8 47.2c-.4-7.7 5.7-14.2 13.4-14.2 6.2 0 11.7 4.3 13.1 10.2l.2-21.9C36.6 13.6 42.9 7.4 50.6 7.4c5.8 0 10.8 3.4 13.1 8.4C65.9 9.5 72 5 79 5c7.8 0 14.1 6.3 14.2 14.1l.2 8.4c2.4-2.3 5.7-3.7 9.4-3.7 7.6 0 13.9 6 14.2 13.6l.9 26.3 1.8-1.4c5.8-4.6 14.3-3.8 19.1 1.8 4.9 5.7 4.3 14.3-1.2 19.3l-24.7 22.2c-8.1 11.2-21.1 17.9-35.1 17.9H58.7c-4.2 0-8.4-.8-12.4-2.3z"
    opacity=".72"
  />
  <path
    fill="url(#handPalm)"
    filter="url(#softTexture)"
    d="M48.1 115.1c-15.7-1.9-27.8-14.9-28.4-30.7l-2.5-37.5c-.2-3.6 2.7-6.7 6.3-6.7 3.2 0 5.9 2.4 6.3 5.5l4.1 33.7h9.4l.5-58.1c.1-3.8 3.2-6.8 7-6.8s6.9 3.1 7 6.9l.7 55.2h9.1l.3-57.5c0-3.9 3.2-7 7-7s7 3.1 7.1 7l.8 57.5h9.5l-.5-38.6c0-3.8 3-7 6.9-7.1 3.8-.1 7 2.9 7.2 6.7l1.6 42.4h8.4l9.5-7.6c2.8-2.2 6.9-1.8 9.2.9 2.3 2.7 2.1 6.8-.6 9.2l-26.1 23.5c-6.6 9.3-17.2 14.6-28.7 14.6H59.4c-3.9 0-7.7-.5-11.3-1.5z"
  />
  <path
    fill="url(#fingerHighlight)"
    d="M51.1 18.8c1.9 0 3.4 1.5 3.5 3.4l.5 50.2c0 2.7-4.3 2.7-4.3 0l-.1-50.1c0-2 1.5-3.5 3.4-3.5zm24.1-2.2c1.9 0 3.4 1.5 3.4 3.4l.8 52.2c0 2.6-4.2 2.7-4.3 0L74.8 20c0-1.9 1.5-3.4 3.4-3.4zm24.1 16c1.8-.1 3.3 1.3 3.4 3.1l1.5 36.3c.1 2.5-4 2.7-4.1.2L98.6 36c-.1-1.8 1.1-3.3 2.9-3.4z"
    opacity=".56"
  />
  <path
    fill="#d99823"
    d="M93.5 93.4c4.1-9.4 10.6-16.3 19.8-21.6l2.2 3.8c-8.4 4.9-14.3 11.2-18 19.6-1 2.3-5 1-4-1.8z"
    opacity=".5"
  />
</svg>
